<svg width="18" height="16" viewBox="0 0 18 16" fill="none" xmlns="http://www.w3.org/2000/svg">
<path d="M8.59619 0C4.17808 0 0.596191 3.58189 0.596191 8C0.596191 12.4181 4.17808 16 8.59619 16C13.0143 16 16.5962 12.4181 16.5962 8C16.5962 3.58189 13.0143 0 8.59619 0Z" stroke="#ACB5BC"/>
<path d="M11.3879 12.0527C11.1476 12.1613 10.8974 12.2535 10.6406 12.3226C9.66609 12.5926 8.69161 12.6025 7.72041 12.2864C6.5484 11.9078 5.77144 11.1078 5.30724 9.98846C5.21835 9.77118 5.15909 9.54402 5.08996 9.31686H4.17144C4.01671 9.31686 3.8949 9.19176 3.8949 9.04032V8.42139C3.8949 8.26665 4.02 8.14484 4.17144 8.14484H4.93193C4.93193 7.97365 4.93193 7.81233 4.93193 7.64114H4.17144C4.01671 7.64114 3.8949 7.51604 3.8949 7.3646V6.74567C3.8949 6.59093 4.02 6.46912 4.17144 6.46912H5.13934L5.17226 6.37365C5.43235 5.54731 5.88008 4.83949 6.56815 4.30616C7.11465 3.88147 7.74675 3.64772 8.42494 3.53908C9.38955 3.38435 10.3245 3.51604 11.2299 3.87159C11.2891 3.89464 11.3451 3.92097 11.4011 3.9539C11.6184 4.08229 11.6743 4.24361 11.5788 4.47735C11.4768 4.72097 11.3747 4.96789 11.2628 5.20822C11.1673 5.41562 11.0356 5.48147 10.8118 5.43209C10.5056 5.36295 10.206 5.26748 9.89984 5.20493C9.25457 5.07324 8.61259 5.06665 7.98379 5.31357C7.44387 5.52756 7.11465 5.93908 6.89078 6.45266C6.88749 6.45925 6.88749 6.46583 6.88749 6.47242H8.76733C8.92206 6.47242 9.04387 6.59752 9.04387 6.74896V7.36789C9.04387 7.52262 8.91877 7.64443 8.76733 7.64443H6.62082C6.61753 7.80904 6.62082 7.97365 6.62082 8.14814H8.77062C8.92535 8.14814 9.04716 8.27324 9.04716 8.42468V9.04361C9.04716 9.19834 8.92206 9.32015 8.77062 9.32015H6.80848C7.04551 9.99834 7.4307 10.5218 8.15498 10.749C8.7344 10.93 9.31712 10.9202 9.90313 10.7983C10.206 10.7358 10.5023 10.6436 10.8052 10.5745C11.0422 10.5218 11.1706 10.5843 11.2694 10.8016C11.3813 11.0453 11.4867 11.2922 11.5854 11.5424C11.6776 11.7662 11.6184 11.9473 11.3879 12.0527Z" fill="#ACB5BC"/>
</svg>
