<svg width="23" height="23" viewBox="0 0 23 23" fill="none" xmlns="http://www.w3.org/2000/svg">
<path d="M16.4129 5.21497C12.8844 2.55609 7.86817 3.26108 5.20928 6.78954C2.5504 10.318 3.25539 15.3343 6.78385 17.9931C10.3123 20.652 15.3286 19.947 17.9875 16.4186C20.6463 12.8901 19.9413 7.87386 16.4129 5.21497Z" fill="#19B5BC"/>
<path fill-rule="evenodd" clip-rule="evenodd" d="M9.98857 15.1041C9.59617 13.1041 8.59617 10.6041 9.7892 10.2963C10.9826 9.98844 12.2968 8.49384 12.3899 8.37023C12.7198 7.93247 12.9283 7.41217 12.9833 6.87208C12.9969 6.73925 13.0482 6.61621 13.125 6.51433C13.2562 6.34021 13.4622 6.2276 13.6829 6.23179C13.9804 6.23737 14.2158 6.45544 14.2491 6.75597L14.3087 7.29119C14.3764 7.90385 14.3081 8.53626 14.1081 9.14191L13.913 9.73389L16.0743 9.82288C16.4812 9.83066 16.7746 10.1824 16.7205 10.6041C16.6686 11.0103 16.3024 11.323 15.9076 11.3154C15.9028 11.3153 15.8999 11.3188 15.8989 11.3223C15.8981 11.3264 15.8997 11.3307 15.9043 11.3317C15.9901 11.3534 16.2643 11.4354 16.3319 11.4863C16.4398 11.5676 16.5211 11.6822 16.5638 11.8158C16.5933 11.9079 16.6045 12.0092 16.5937 12.1152C16.5729 12.3199 16.474 12.5039 16.3306 12.6362C16.105 12.8447 15.8508 12.8482 15.8016 12.8479C15.7932 12.8479 15.7856 12.8549 15.7848 12.8639C15.7843 12.8726 15.7903 12.8796 15.7981 12.8799C15.852 12.9018 15.902 12.9306 15.9478 12.965C16.0594 13.0492 16.1443 13.1676 16.1891 13.3045C16.2193 13.3973 16.2313 13.4988 16.2205 13.6041C16.1786 14.0162 15.6934 14.3556 15.2931 14.3479C15.2832 14.3478 15.2732 14.3477 15.2635 14.3474C15.2574 14.3479 15.2524 14.3522 15.2516 14.3572C15.253 14.3657 15.2573 14.3693 15.2634 14.369C15.4695 14.4303 15.6241 14.5895 15.6897 14.7955C15.7203 14.8899 15.7316 14.9946 15.7205 15.1041C15.6785 15.5165 15.3203 15.8445 14.9202 15.837C14.9202 15.837 11.4886 16.1041 9.98857 15.1041Z" fill="white"/>
<path opacity="0.75" fill-rule="evenodd" clip-rule="evenodd" d="M9.29615 15.1041C8.17913 15.9315 6.59615 15.1341 6.59615 13.744L6.59615 11.3849C6.59615 10.7343 7.20754 10.2569 7.83869 10.4147L8.59615 10.6041C8.38784 12.1534 9.14036 13.6027 9.29615 15.1041Z" fill="white"/>
</svg>
